#!OML:ASF Y:\EmotionMaleHayes\Project 1\Capture day 1\Session 1\Male1.ASF
:FULLY-SPECIFIED
:DEGREES
760
root 8.00905 16.9274 12.2242 176.885 15.4995 174.641
lowerback 5.2257 3.2368 -8.86168
upperback 1.72631 4.20379 -4.25573
thorax -1.41898 2.2725 0.255687
lowerneck -22.2202 3.12232 5.22675
upperneck 30.5434 5.21819 -3.54605
head 14.4743 2.82708 -1.23285
rclavicle 1.07344e-014 2.06736e-014
rhumerus -35.7354 13.7834 -91.9929
rradius 43.6638
rwrist -0.622775
rhand -8.53145 -30.8319
rfingers 7.12502
rthumb 17.3974 -60.0733
lclavicle 1.07344e-014 2.06736e-014
lhumerus -34.2099 -3.7085 85.0157
lradius 29.6009
lwrist -4.68466
lhand -15.949 -24.2808
lfingers 7.12502
lthumb 10.2494 5.44947
rfemur 3.40837 -9.1949 4.97369
rtibia 54.1857
rfoot -2.64688 -11.7597
rtoes 18.067
lfemur 4.60971 14.8027 -31.3417
ltibia 1.78694
lfoot -10.7707 7.19424
ltoes 12.0977
761
root 8.03437 16.9298 12.1181 176.68 14.8468 174.299
lowerback 5.28842 3.07465 -9.39499
upperback 1.80286 3.97813 -4.26649
thorax -1.3883 2.16541 0.551255
lowerneck -22.1661 3.11644 5.20021
upperneck 30.3611 5.15525 -3.46148
head 14.3743 2.80116 -1.20852
rclavicle -4.94974e-014 -1.03368e-014
rhumerus -36.3155 13.3425 -92.125
rradius 43.3623
rwrist -0.81091
rhand -8.89999 -31.0068
rfingers 7.12502
rthumb 17.0427 -60.2792
lclavicle -4.94974e-014 -1.03368e-014
lhumerus -33.6011 -4.85696 85.3133
lradius 29.9438
lwrist -4.2586
lhand -15.7791 -23.9546
lfingers 7.12502
lthumb 10.4132 5.76754
rfemur 2.38785 -8.63901 4.86709
rtibia 55.3126
rfoot -2.59101 -10.554
rtoes 17.3224
lfemur 5.27892 14.9346 -31.577
ltibia 1.77172
lfoot -10.7734 6.44437
ltoes 11.7457
762
root 8.05123 16.9311 12.0135 176.598 14.1495 174.096
lowerback 5.32174 2.85149 -9.74791
upperback 1.84516 3.6702 -4.22858
thorax -1.35952 2.01325 0.806489
lowerneck -22.1541 3.124 5.18653
upperneck 30.2834 5.12714 -3.38698
head 14.3328 2.79368 -1.18243
rclavicle -2.45499e-014 -3.18055e-014
rhumerus -36.8454 12.6356 -92.1287
rradius 42.9657
rwrist -0.620492
rhand -9.22795 -30.8019
rfingers 7.12502
rthumb 16.727 -60.1013
lclavicle -2.45499e-014 -3.18055e-014
lhumerus -33.1655 -5.73837 85.5464
lradius 30.5053
lwrist -4.25748
lhand -15.5449 -23.425
lfingers 7.12502
lthumb 10.6391 6.28563
rfemur 1.33896 -8.08651 4.95958
rtibia 56.2464
rfoot -2.7287 -9.59759
rtoes 16.6005
lfemur 5.84492 14.8527 -31.8258
ltibia 1.65974
lfoot -10.7583 6.10296
ltoes 9.235
763
root 8.05933 16.9349 11.914 176.583 13.4782 174.116
lowerback 5.42805 2.68415 -9.74793
upperback 1.87641 3.43669 -4.18941
thorax -1.36851 1.89692 0.860931
lowerneck -22.1091 3.08439 5.17143
upperneck 30.1364 5.03865 -3.36088
head 14.2521 2.75178 -1.18823
rclavicle 3.98563e-014 3.18055e-015
rhumerus -37.2388 11.3564 -91.908
rradius 42.3671
rwrist 0.221754
rhand -8.9463 -30.4233
rfingers 7.12502
rthumb 16.9981 -59.6995
lclavicle 3.98563e-014 3.18055e-015
lhumerus -32.396 -6.69363 85.7889
lradius 30.6934
lwrist -4.33039
lhand -15.4814 -23.0211
lfingers 7.12502
lthumb 10.7004 6.68641
rfemur 0.233942 -7.43313 5.31516
rtibia 57.1105
rfoot -3.21608 -8.81199
rtoes 17.0464
lfemur 6.37745 14.5902 -31.8932
ltibia 1.52728
lfoot -10.9138 5.93268
ltoes 7.71143
764
root 8.06367 16.9415 11.819 176.502 12.8174 173.913
lowerback 5.5757 2.52537 -9.90192
upperback 1.92791 3.21379 -4.21179
thorax -1.38265 1.79058 0.933367
lowerneck -22.071 3.06478 5.00225
upperneck 29.8972 4.98266 -3.22598
head 14.1264 2.71615 -1.11863
rclavicle -9.14409e-015 -5.88403e-014
rhumerus -37.4839 9.70935 -91.5043
rradius 41.5839
rwrist 1.43144
rhand -8.52292 -30.3395
rfingers 7.12502
rthumb 17.4056 -59.5802
lclavicle -9.14409e-015 -5.88403e-014
lhumerus -31.403 -6.81531 85.7718
lradius 30.6286
lwrist -5.0246
lhand -15.4481 -23.1763
lfingers 7.12502
lthumb 10.7325 6.52958
rfemur -1.0197 -6.99449 5.21342
rtibia 58.1287
rfoot -3.65991 -7.74563
rtoes 17.3191
lfemur 6.87881 14.2333 -32.2188
ltibia 1.4478
lfoot -11.1729 5.68118
ltoes 8.81036
765
root 8.07101 16.9477 11.7222 176.382 12.121 173.378
lowerback 5.67581 2.31092 -10.4968
upperback 1.96173 2.90821 -4.26008
thorax -1.39584 1.64799 1.22776
lowerneck -22.0322 3.05816 4.81973
upperneck 29.7198 4.95152 -3.05911
head 14.0283 2.69703 -1.02902
rclavicle -2.65378e-014 5.88403e-014
rhumerus -38.4023 10.9521 -91.997
rradius 41.7896
rwrist -0.539125
rhand -9.05938 -31.2758
rfingers 7.12502
rthumb 16.8893 -60.5614
lclavicle -2.65378e-014 5.88403e-014
lhumerus -30.5425 -6.71961 85.7516
lradius 30.6506
lwrist -5.70364
lhand -15.1062 -23.4456
lfingers 7.12502
lthumb 11.0624 6.24291
rfemur -2.33686 -6.81737 4.60312
rtibia 59.0872
rfoot -3.82918 -6.54868
rtoes 14.5969
lfemur 7.3165 14.0986 -32.8511
ltibia 1.48388
lfoot -11.3394 5.11677
ltoes 10.545
766
root 8.08432 16.9521 11.6213 176.349 11.4326 173.055
lowerback 5.69313 2.12742 -10.9632
upperback 1.98786 2.65434 -4.27022
thorax -1.36806 1.5264 1.49154
lowerneck -22.0671 3.0992 5.09533
upperneck 29.7335 4.98286 -3.28423
head 14.0594 2.70999 -1.1598
rclavicle 9.93923e-016 -5.08889e-014
rhumerus -38.5599 8.38074 -91.2665
rradius 40.9018
rwrist 0.939277
rhand -8.69983 -30.6357
rfingers 7.12502
rthumb 17.2354 -59.8914
lclavicle 9.93923e-016 -5.08889e-014
lhumerus -29.8236 -7.95051 86.0441
lradius 30.819
lwrist -5.17734
lhand -14.6976 -23.1769
lfingers 7.12502
lthumb 11.4564 6.49005
rfemur -3.55905 -6.44718 4.3658
rtibia 59.6761
rfoot -4.3897 -5.82346
rtoes 13.1331
lfemur 7.74452 13.9887 -33.215
ltibia 1.52673
lfoot -11.3615 4.63954
ltoes 10.5944
767
root 8.1014 16.9544 11.5239 176.335 10.7848 172.926
lowerback 5.76305 1.94884 -11.303
upperback 2.01122 2.39525 -4.20717
thorax -1.3679 1.39867 1.76064
lowerneck -22.0732 3.12299 5.09192
upperneck 29.6265 4.97494 -3.22612
head 14.012 2.70817 -1.13856
rclavicle 2.15681e-014 -5.40694e-014
rhumerus -39.2109 8.51255 -91.3982
rradius 40.5412
rwrist 0.652877
rhand -8.89177 -30.6695
rfingers 7.12502
rthumb 17.0506 -59.9412
lclavicle 2.15681e-014 -5.40694e-014
lhumerus -29.126 -9.0863 86.2879
lradius 31.0186
lwrist -4.76004
lhand -14.9459 -22.7165
lfingers 7.12502
lthumb 11.2169 6.96366
rfemur -4.6962 -5.85422 4.4743
rtibia 60.0219
rfoot -5.24859 -5.40764
rtoes 13.4364
lfemur 8.19473 13.7486 -33.3577
ltibia 1.52608
lfoot -11.4064 4.37322
ltoes 9.02981
768
root 8.11962 16.9561 11.4294 176.282 10.2052 172.731
lowerback 5.86511 1.76845 -11.6894
upperback 2.03737 2.12873 -4.1564
thorax -1.37864 1.26888 2.04209
lowerneck -21.9856 3.16884 4.93025
upperneck 29.3649 4.995 -3.03126
head 13.8703 2.71531 -1.03339
rclavicle -1.6201e-014 -2.78299e-014
rhumerus -39.6038 7.63066 -91.107
rradius 39.8193
rwrist 1.76258
rhand -8.57584 -30.4712
rfingers 7.12502
rthumb 17.3547 -59.7164
lclavicle -1.6201e-014 -2.78299e-014
lhumerus -28.262 -9.35285 86.3639
lradius 31.0551
lwrist -5.04533
lhand -15.1735 -22.7707
lfingers 7.12502
lthumb 10.9974 6.92119
rfemur -5.85263 -5.16511 4.5558
rtibia 60.3434
rfoot -5.93148 -4.9645
rtoes 12.4617
lfemur 8.63758 13.5453 -33.5087
ltibia 1.57602
lfoot -11.5566 4.07027
ltoes 7.96377
769
root 8.13335 16.9585 11.3319 176.291 9.56769 172.672
lowerback 5.90543 1.5577 -11.7937
upperback 2.07132 1.84452 -4.13712
thorax -1.3333 1.12652 2.14144
lowerneck -22.0097 3.19663 4.78084
upperneck 29.2696 4.99421 -2.81265
head 13.8228 2.72236 -0.922176
rclavicle -1.43125e-014 7.15625e-015
rhumerus -39.86 5.93711 -90.5617
rradius 39.0425
rwrist 3.14368
rhand -7.75098 -29.9267
rfingers 7.12502
rthumb 18.1484 -59.1001
lclavicle -1.43125e-014 7.15625e-015
lhumerus -27.4108 -9.73935 86.3863
lradius 31.1398
lwrist -5.05257
lhand -15.0924 -23.1416
lfingers 7.12502
lthumb 11.0757 6.54613
rfemur -7.0088 -4.52888 4.74709
rtibia 60.5615
rfoot -6.98667 -3.92469
rtoes 12.0966
lfemur 9.05562 13.0191 -33.631
ltibia 1.59577
lfoot -11.676 4.01074
ltoes 7.38977
770
root 8.14038 16.9603 11.2347 176.337 8.84809 172.736
lowerback 6.00293 1.29651 -11.7455
upperback 2.07854 1.48133 -4.08167
thorax -1.33635 0.944313 2.19942
lowerneck -21.9799 3.21724 4.52679
upperneck 29.1487 4.98544 -2.47911
head 13.7458 2.73119 -0.750509
rclavicle -1.43125e-014 3.73715e-014
rhumerus -40.7985 7.82336 -91.3939
rradius 39.081
rwrist 0.631893
rhand -8.36179 -30.4871
rfingers 7.12502
rthumb 17.5607 -59.714
lclavicle -1.43125e-014 3.73715e-014
lhumerus -26.7624 -10.3893 86.3906
lradius 31.4373
lwrist -4.6457
lhand -15.1094 -23.1787
lfingers 7.12502
lthumb 11.0593 6.50992
rfemur -8.10632 -3.87904 5.03868
rtibia 60.5774
rfoot -8.16875 -2.89403
rtoes 13.5367
lfemur 9.49058 11.9333 -33.8174
ltibia 1.56479
lfoot -12.0755 4.22805
ltoes 10.3402
771
root 8.15284 16.9613 11.1396 176.382 8.17375 172.766
lowerback 6.08898 1.10023 -11.8509
upperback 2.0941 1.19945 -3.99391
thorax -1.33629 0.802034 2.36897
lowerneck -21.987 3.29052 4.73833
upperneck 29.0492 5.0743 -2.71563
head 13.7234 2.7552 -0.864938
rclavicle -4.96962e-015 -4.05521e-014
rhumerus -40.9974 5.40521 -90.3934
rradius 38.1973
rwrist 2.51535
rhand -8.34971 -30.2868
rfingers 7.12502
rthumb 17.5723 -59.5127
lclavicle -4.96962e-015 -4.05521e-014
lhumerus -26.2637 -11.4443 86.4945
lradius 31.9656
lwrist -3.95739
lhand -15.2174 -22.8967
lfingers 7.12502
lthumb 10.955 6.79745
rfemur -9.17204 -2.96711 5.42767
rtibia 60.4349
rfoot -8.76357 -3.43303
rtoes 8.84339
lfemur 9.93513 10.6666 -34.0487
ltibia 1.56363
lfoot -12.9043 4.45149
ltoes 16.1883
772
root 8.17419 16.9635 11.0444 176.423 7.58491 172.787
lowerback 6.11426 1.01103 -12.0407
upperback 2.14081 1.07102 -3.89836
thorax -1.28803 0.733573 2.58253
lowerneck -21.9895 3.23869 4.67251
upperneck 28.8685 4.97644 -2.68068
head 13.6393 2.70182 -0.860579
rclavicle 6.4605e-015 1.60618e-013
rhumerus -41.6047 5.37627 -90.2966
rradius 37.9427
rwrist 2.12277
rhand -8.26041 -30.5303
rfingers 7.12502
rthumb 17.6583 -59.7485
lclavicle 6.4605e-015 1.60618e-013
lhumerus -25.6781 -12.5778 86.7177
lradius 32.4264
lwrist -3.40652
lhand -15.4415 -22.6209
lfingers 7.12502
lthumb 10.7389 7.08457
rfemur -10.2704 -2.09255 5.80277
rtibia 60.2219
rfoot -9.26306 -4.2129
rtoes 8.26262
lfemur 10.3731 9.86221 -34.1353
ltibia 1.5361
lfoot -13.3756 4.43692
ltoes 19.4941
773
root 8.18616 16.9666 10.9454 176.403 7.03507 172.664
lowerback 6.1805 0.92554 -12.1848
upperback 2.18137 0.953655 -3.91556
thorax -1.26616 0.677625 2.65149
lowerneck -21.9813 3.16561 4.62512
upperneck 28.6766 4.80777 -2.55503
head 13.5435 2.63187 -0.83681
rclavicle -8.74653e-015 -6.20208e-014
rhumerus -41.979 4.31771 -89.8186
rradius 37.3308
rwrist 2.63998
rhand -7.93611 -30.5332
rfingers 7.12502
rthumb 17.9703 -59.723
lclavicle -8.74653e-015 -6.20208e-014
lhumerus -24.9787 -13.4455 86.855
lradius 32.6806
lwrist -3.09691
lhand -15.6153 -22.4813
lfingers 7.12502
lthumb 10.5713 7.23281
rfemur -11.4699 -1.95254 5.62691
rtibia 60.0877
rfoot -9.83812 -3.72621
rtoes 6.95044
lfemur 10.8162 9.62543 -34.3156
ltibia 1.54299
lfoot -14.1655 4.11087
ltoes 23.993
